<?xml version="1.0" encoding="utf-8"?>
<!-- Generator: Adobe Illustrator 16.0.0, SVG Export Plug-In . SVG Version: 6.00 Build 0)  -->
<!DOCTYPE svg PUBLIC "-//W3C//DTD SVG 1.1//EN" "http://www.w3.org/Graphics/SVG/1.1/DTD/svg11.dtd">
<svg version="1.1" id="Layer_1" xmlns="http://www.w3.org/2000/svg" xmlns:xlink="http://www.w3.org/1999/xlink" x="0px" y="0px"
	 width="800px" height="800px" viewBox="0 0 800 800" enable-background="new 0 0 800 800" xml:space="preserve">
<path fill="#5B5D6E" d="M772.414,627.586H27.586C12.35,627.586,0,615.236,0,600V89.655c0-15.236,12.35-27.586,27.586-27.586h744.828
	c15.236,0,27.586,12.35,27.586,27.586V600C800,615.234,787.648,627.586,772.414,627.586z"/>
<path fill="#91CAFF" d="M731.034,503.449H68.966c-7.617,0-13.794-6.177-13.794-13.794V131.034c0-7.617,6.177-13.793,13.794-13.793
	h662.068c7.617,0,13.794,6.176,13.794,13.793v358.621C744.828,497.272,738.651,503.449,731.034,503.449z"/>
<polygon fill="#C7CFE2" points="303.448,724.137 317.24,613.794 482.76,613.794 496.552,724.137 "/>
<polygon fill="#AFB9D2" points="487.932,655.172 482.76,613.794 317.24,613.794 312.068,655.172 "/>
<path fill="#D7DEED" d="M524.138,737.931H275.862c-7.623,0-13.793-6.169-13.793-13.794s6.168-13.794,13.793-13.794h248.276
	c7.624,0,13.794,6.169,13.794,13.794S531.763,737.931,524.138,737.931z"/>
<path fill="#4096FF" d="M731.034,117.241H68.966c-7.617,0-13.794,6.176-13.794,13.793v27.586c0-7.617,6.177-13.793,13.794-13.793
	h662.068c7.617,0,13.794,6.176,13.794,13.793v-27.586C744.828,123.417,738.651,117.241,731.034,117.241z"/>
<path fill="#D7DEED" d="M27.586,627.586h744.828C787.648,627.586,800,615.234,800,600v-41.379H0V600
	C0,615.234,12.352,627.586,27.586,627.586z"/>
<path fill="#959CB3" d="M645.572,255.172h-1.396c-1.791-8.787-5.302-16.943-10.096-24.177l1.044-1.043
	c5.388-5.388,5.388-14.119,0-19.507c-5.386-5.386-14.119-5.386-19.505,0l-1.044,1.044c-7.232-4.795-15.389-8.303-24.176-10.095V200
	c0-7.617-6.177-13.794-13.794-13.794s-13.794,6.177-13.794,13.794v1.396c-8.787,1.791-16.943,5.3-24.177,10.096l-1.044-1.044
	c-5.386-5.386-14.118-5.386-19.504,0c-5.388,5.388-5.388,14.118,0,19.506l1.043,1.044c-4.795,7.232-8.303,15.388-10.095,24.177
	h-1.396c-7.617,0-13.794,6.177-13.794,13.794s6.177,13.794,13.794,13.794h1.396c1.79,8.787,5.302,16.943,10.095,24.176l-1.043,1.044
	c-5.388,5.386-5.388,14.119,0,19.505c5.386,5.388,14.118,5.388,19.504,0l1.044-1.044c7.233,4.795,15.388,8.303,24.177,10.096v1.396
	c0,7.617,6.177,13.794,13.794,13.794s13.794-6.177,13.794-13.794v-1.396c8.787-1.79,16.943-5.302,24.176-10.095l1.044,1.043
	c5.386,5.388,14.119,5.388,19.505,0c5.388-5.386,5.388-14.118,0-19.504l-1.044-1.044c4.796-7.233,8.304-15.388,10.096-24.177h1.396
	c7.617,0,13.793-6.177,13.793-13.794C659.365,261.348,653.192,255.172,645.572,255.172z M576.606,310.345
	c-22.817,0-41.38-18.563-41.38-41.38s18.563-41.38,41.38-41.38s41.38,18.563,41.38,41.38S599.424,310.345,576.606,310.345z"/>
<g>
	<path fill="#858AA0" d="M576.606,227.586c-22.854,0-41.38,18.526-41.38,41.38s18.526,41.38,41.38,41.38
		c22.853,0,41.38-18.526,41.38-41.38S599.461,227.586,576.606,227.586z M576.606,282.76c-7.617,0-13.794-6.177-13.794-13.794
		s6.177-13.794,13.794-13.794s13.794,6.177,13.794,13.794S584.227,282.76,576.606,282.76z"/>
	<path fill="#858AA0" d="M681.401,448.277v-2.541c4.784-1.706,9.116-4.255,12.909-7.489l2.231,1.289
		c6.586,3.813,15.033,1.549,18.846-5.052c3.813-6.6,1.563-15.032-5.052-18.845l-2.106-1.219c0.453-2.447,0.761-4.949,0.761-7.523
		c0-2.575-0.306-5.077-0.761-7.523l2.106-1.219c6.614-3.827,8.864-12.271,5.052-18.846c-3.813-6.6-12.257-8.864-18.846-5.052
		l-2.231,1.289c-3.793-3.234-8.121-5.782-12.909-7.489v-2.537c0-7.623-6.169-13.794-13.794-13.794s-13.793,6.169-13.793,13.794
		v2.544c-4.785,1.706-9.116,4.253-12.91,7.489l-2.23-1.289c-6.586-3.813-15.033-1.549-18.846,5.051
		c-1.253,2.169-1.846,4.539-1.846,6.883c0,4.77,2.466,9.402,6.897,11.963l2.106,1.219c-0.454,2.447-0.762,4.948-0.762,7.523
		c0,2.576,0.307,5.076,0.762,7.523l-2.106,1.219c-4.432,2.558-6.897,7.194-6.897,11.961c0,2.344,0.594,4.714,1.846,6.883
		c3.813,6.601,12.256,8.864,18.846,5.052l2.23-1.289c3.794,3.234,8.122,5.783,12.91,7.489v2.537c0,7.624,6.168,13.794,13.793,13.794
		S681.401,455.9,681.401,448.277z M667.609,393.103c7.611,0,13.794,6.183,13.794,13.794c0,7.61-6.183,13.793-13.794,13.793
		s-13.794-6.183-13.794-13.793C653.815,399.286,659.998,393.103,667.609,393.103z"/>
</g>
<path fill="#AFB9D2" d="M303.448,503.449c0-45.707,37.052-82.76,82.76-82.76s82.759,37.052,82.759,82.76h110.346v-13.794
	c0-7.617-6.177-13.794-13.794-13.794h-2.337c-1.989-12.854-5.296-25.245-9.863-37.041l1.969-1.137
	c6.599-3.81,8.859-12.246,5.049-18.841l-13.794-23.89c-3.81-6.599-12.245-8.856-18.842-5.048l-1.917,1.105
	c-8.055-9.987-17.15-19.081-27.138-27.137l1.109-1.919c3.81-6.597,1.548-15.033-5.049-18.841l-23.889-13.794
	c-6.597-3.81-15.033-1.548-18.843,5.049l-1.137,1.97c-11.797-4.566-24.188-7.871-37.041-9.862v-2.337
	c0-7.617-6.177-13.794-13.794-13.794h-27.586c-7.617,0-13.794,6.177-13.794,13.794v2.337c-12.853,1.989-25.245,5.296-37.04,9.862
	l-1.138-1.97c-3.81-6.597-12.245-8.856-18.841-5.049l-23.889,13.794c-6.597,3.81-8.856,12.245-5.049,18.841l1.109,1.919
	c-9.987,8.056-19.083,17.149-27.137,27.137l-1.917-1.105c-6.598-3.81-15.033-1.549-18.84,5.048l-13.794,23.89
	c-3.809,6.597-1.548,15.032,5.048,18.841l1.969,1.137c-4.567,11.797-7.87,24.188-9.862,37.041H206.9
	c-7.617,0-13.793,6.177-13.793,13.794v13.794H303.448z"/>
<path fill="#959CB3" d="M386.206,393.103c60.844,0,110.346,49.502,110.346,110.346h27.586c0-76.057-61.882-137.932-137.932-137.932
	S248.275,427.39,248.275,503.449h27.586C275.862,442.605,325.364,393.103,386.206,393.103z"/>
<g>
	<path fill="#707487" d="M517.24,482.76c-11.426,0-20.688,9.264-20.688,20.689h41.38C537.932,492.02,528.667,482.76,517.24,482.76z"
		/>
	<circle fill="#707487" cx="386.206" cy="372.414" r="20.689"/>
	<path fill="#707487" d="M255.172,482.76c-11.427,0-20.689,9.264-20.689,20.689h41.379
		C275.862,492.02,266.599,482.76,255.172,482.76z"/>
</g>
<path fill="#FFFFFF" d="M151.724,200h-27.586c-7.617,0-13.794-6.177-13.794-13.794l0,0c0-7.617,6.177-13.793,13.794-13.793h27.586
	c7.617,0,13.793,6.176,13.793,13.793l0,0C165.517,193.823,159.341,200,151.724,200z"/>
<path fill="#BAE0FF" d="M358.62,200H206.897c-7.617,0-13.794-6.177-13.794-13.794l0,0c0-7.617,6.177-13.793,13.794-13.793H358.62
	c7.617,0,13.794,6.176,13.794,13.793l0,0C372.414,193.823,366.237,200,358.62,200z"/>
<path fill="#FFFFFF" d="M151.724,255.172h-27.586c-7.617,0-13.794-6.177-13.794-13.794l0,0c0-7.617,6.177-13.793,13.794-13.793
	h27.586c7.617,0,13.793,6.176,13.793,13.793l0,0C165.517,248.997,159.341,255.172,151.724,255.172z"/>
<path fill="#BAE0FF" d="M303.448,255.172h-96.551c-7.617,0-13.794-6.177-13.794-13.794l0,0c0-7.617,6.177-13.793,13.794-13.793
	h96.551c7.617,0,13.794,6.176,13.794,13.793l0,0C317.24,248.997,311.065,255.172,303.448,255.172z"/>
<path fill="#FFFFFF" d="M151.724,310.345h-27.586c-7.617,0-13.794-6.177-13.794-13.794l0,0c0-7.617,6.177-13.794,13.794-13.794
	h27.586c7.617,0,13.793,6.177,13.793,13.794l0,0C165.517,304.169,159.341,310.345,151.724,310.345z"/>
<g>
	<path fill="#BAE0FF" d="M262.069,310.345h-55.172c-7.617,0-13.794-6.177-13.794-13.794l0,0c0-7.617,6.177-13.794,13.794-13.794
		h55.172c7.617,0,13.793,6.177,13.793,13.794l0,0C275.862,304.169,269.686,310.345,262.069,310.345z"/>
	<path fill="#BAE0FF" d="M400,255.172h-41.38c-7.617,0-13.794-6.177-13.794-13.794l0,0c0-7.617,6.177-13.793,13.794-13.793H400
		c7.617,0,13.794,6.176,13.794,13.793l0,0C413.794,248.997,407.617,255.172,400,255.172z"/>
</g>
</svg>
